<svg width="61" height="60" viewBox="0 0 61 60" fill="none" xmlns="http://www.w3.org/2000/svg">
<path d="M27.5423 8.66662H8.74323C7.31871 8.66662 5.95253 9.22852 4.94525 10.2287C3.93796 11.2289 3.37207 12.5855 3.37207 14V51.3333C3.37207 52.7478 3.93796 54.1043 4.94525 55.1045C5.95253 56.1047 7.31871 56.6666 8.74323 56.6666H46.3413C47.7659 56.6666 49.132 56.1047 50.1393 55.1045C51.1466 54.1043 51.7125 52.7478 51.7125 51.3333V32.6666M47.6841 4.66662C48.7525 3.60575 50.2016 3.00977 51.7125 3.00977C53.2234 3.00977 54.6725 3.60575 55.7409 4.66662C56.8093 5.72749 57.4095 7.16633 57.4095 8.66662C57.4095 10.1669 56.8093 11.6058 55.7409 12.6666L30.2279 38L19.4855 40.6666L22.1711 30L47.6841 4.66662Z" stroke="black" stroke-width="6" stroke-linecap="round" stroke-linejoin="round"/>
</svg>
