<svg width="54" height="56" viewBox="0 0 54 56" fill="none" xmlns="http://www.w3.org/2000/svg">
<path d="M10.6007 41.8325C12.8673 40.0523 15.4007 38.6487 18.2007 37.6217C21.0007 36.5947 23.934 36.0811 27.0007 36.0811C30.0673 36.0811 33.0007 36.5947 35.8007 37.6217C38.6007 38.6487 41.134 40.0523 43.4007 41.8325C44.9562 39.961 46.1673 37.8385 47.034 35.4649C47.9007 33.0914 48.334 30.558 48.334 27.8649C48.334 21.7941 46.2562 16.6247 42.1007 12.3568C37.9451 8.08895 32.9118 5.95502 27.0007 5.95502C21.0895 5.95502 16.0562 8.08895 11.9007 12.3568C7.7451 16.6247 5.66732 21.7941 5.66732 27.8649C5.66732 30.558 6.10065 33.0914 6.96732 35.4649C7.83399 37.8385 9.0451 39.961 10.6007 41.8325ZM27.0007 30.6037C24.3784 30.6037 22.1673 29.6793 20.3673 27.8307C18.5673 25.982 17.6673 23.7112 17.6673 21.0181C17.6673 18.325 18.5673 16.0541 20.3673 14.2055C22.1673 12.3568 24.3784 11.4325 27.0007 11.4325C29.6229 11.4325 31.834 12.3568 33.634 14.2055C35.434 16.0541 36.334 18.325 36.334 21.0181C36.334 23.7112 35.434 25.982 33.634 27.8307C31.834 29.6793 29.6229 30.6037 27.0007 30.6037ZM27.0007 55.2523C23.3118 55.2523 19.8451 54.5334 16.6007 53.0956C13.3562 51.6577 10.534 49.7064 8.13399 47.2415C5.73398 44.7766 3.83398 41.8781 2.43398 38.546C1.03398 35.2139 0.333984 31.6535 0.333984 27.8649C0.333984 24.0763 1.03398 20.516 2.43398 17.1838C3.83398 13.8517 5.73398 10.9532 8.13399 8.48835C10.534 6.02348 13.3562 4.07213 16.6007 2.6343C19.8451 1.19646 23.3118 0.477539 27.0007 0.477539C30.6895 0.477539 34.1562 1.19646 37.4007 2.6343C40.6451 4.07213 43.4673 6.02348 45.8673 8.48835C48.2673 10.9532 50.1673 13.8517 51.5673 17.1838C52.9673 20.516 53.6673 24.0763 53.6673 27.8649C53.6673 31.6535 52.9673 35.2139 51.5673 38.546C50.1673 41.8781 48.2673 44.7766 45.8673 47.2415C43.4673 49.7064 40.6451 51.6577 37.4007 53.0956C34.1562 54.5334 30.6895 55.2523 27.0007 55.2523Z" fill="black"/>
</svg>
