<svg width="64" height="56" viewBox="0 0 64 56" fill="none" xmlns="http://www.w3.org/2000/svg">
<path d="M45.3337 52V46.6667C45.3337 43.8377 44.2099 41.1246 42.2095 39.1242C40.2091 37.1238 37.496 36 34.667 36H13.3337C10.5047 36 7.79157 37.1238 5.79119 39.1242C3.7908 41.1246 2.66699 43.8377 2.66699 46.6667V52M61.3337 52V46.6667C61.3319 44.3033 60.5453 42.0074 59.0973 40.1395C57.6493 38.2716 55.622 36.9375 53.3337 36.3467M42.667 4.34667C44.9614 4.93414 46.9951 6.26854 48.4474 8.13949C49.8996 10.0105 50.6879 12.3115 50.6879 14.68C50.6879 17.0485 49.8996 19.3495 48.4474 21.2205C46.9951 23.0915 44.9614 24.4259 42.667 25.0133M34.667 14.6667C34.667 20.5577 29.8914 25.3333 24.0003 25.3333C18.1093 25.3333 13.3337 20.5577 13.3337 14.6667C13.3337 8.77563 18.1093 4 24.0003 4C29.8914 4 34.667 8.77563 34.667 14.6667Z" stroke="black" stroke-width="6.57295" stroke-linecap="round" stroke-linejoin="round"/>
</svg>
