<svg width="54" height="54" viewBox="0 0 54 54" fill="none" xmlns="http://www.w3.org/2000/svg">
<path d="M24.334 40.3333H29.6673V29.6666H40.334V24.3333H29.6673V13.6666H24.334V24.3333H13.6673V29.6666H24.334V40.3333ZM27.0007 53.6666C23.3118 53.6666 19.8451 52.9778 16.6007 51.6C13.3562 50.1778 10.534 48.2666 8.13399 45.8666C5.73399 43.4666 3.82287 40.6444 2.40065 37.4C1.02287 34.1555 0.333984 30.6889 0.333984 27C0.333984 23.3111 1.02287 19.8444 2.40065 16.6C3.82287 13.3555 5.73399 10.5333 8.13399 8.13331C10.534 5.73331 13.3562 3.84442 16.6007 2.46664C19.8451 1.04442 23.3118 0.333313 27.0007 0.333313C30.6895 0.333313 34.1562 1.04442 37.4007 2.46664C40.6451 3.84442 43.4673 5.73331 45.8673 8.13331C48.2673 10.5333 50.1562 13.3555 51.534 16.6C52.9562 19.8444 53.6673 23.3111 53.6673 27C53.6673 30.6889 52.9562 34.1555 51.534 37.4C50.1562 40.6444 48.2673 43.4666 45.8673 45.8666C43.4673 48.2666 40.6451 50.1778 37.4007 51.6C34.1562 52.9778 30.6895 53.6666 27.0007 53.6666ZM27.0007 48.3333C32.9562 48.3333 38.0007 46.2666 42.134 42.1333C46.2673 38 48.334 32.9555 48.334 27C48.334 21.0444 46.2673 16 42.134 11.8666C38.0007 7.73331 32.9562 5.66664 27.0007 5.66664C21.0451 5.66664 16.0007 7.73331 11.8673 11.8666C7.73398 16 5.66732 21.0444 5.66732 27C5.66732 32.9555 7.73398 38 11.8673 42.1333C16.0007 46.2666 21.0451 48.3333 27.0007 48.3333Z" fill="black"/>
</svg>
